<svg width="645" height="799" viewBox="0 0 645 799" fill="none" xmlns="http://www.w3.org/2000/svg">
<path d="M105.645 601.765C213.424 586.827 198.398 480.019 208.958 471.548C226.36 427.097 262.649 493.816 314.33 416.536C386.924 307.983 258.089 295.507 249.004 204.123C239.918 112.738 150.681 147.9 59.9752 168.341C-30.7308 188.782 31.3507 248.969 -38.7412 231.651C-96.3624 217.413 -189 376.5 -119 484.5C-109.43 528.887 -54.9393 560.74 -54.9393 560.74C-54.9393 560.74 13.7209 614.506 105.645 601.765Z" fill="#6DB8BB"/>
<path d="M105.645 601.765C213.424 586.827 198.398 480.019 208.958 471.548C226.36 427.097 262.649 493.816 314.33 416.536C386.924 307.983 258.089 295.507 249.004 204.123C239.918 112.738 150.681 147.9 59.9752 168.341C-30.7308 188.782 31.3507 248.969 -38.7412 231.651C-96.3624 217.413 -189 376.5 -119 484.5C-109.43 528.887 -54.9393 560.74 -54.9393 560.74C-54.9393 560.74 13.7209 614.506 105.645 601.765Z" fill="url(#paint0_linear)"/>
<path d="M204.468 504.614C142.968 447.614 243.968 388.5 163.468 285C-12.5 219.5 21 42.3718 107.5 11.4998C256 -41.5003 270 114.5 328 131.5C481.653 211.5 536.474 114.106 617.5 151C664.843 185.108 640 251.5 617.5 269C542.312 327.479 520.353 326.394 585.153 463.33C622.944 543.192 612.305 569.161 569.653 590.83C527 612.5 487.501 581.658 449.633 545.471C322.97 424.43 265.967 561.614 204.468 504.614Z" fill="#E0E2D5"/>
<path d="M204.468 504.614C142.968 447.614 243.968 388.5 163.468 285C-12.5 219.5 21 42.3718 107.5 11.4998C256 -41.5003 270 114.5 328 131.5C481.653 211.5 536.474 114.106 617.5 151C664.843 185.108 640 251.5 617.5 269C542.312 327.479 520.353 326.394 585.153 463.33C622.944 543.192 612.305 569.161 569.653 590.83C527 612.5 487.501 581.658 449.633 545.471C322.97 424.43 265.967 561.614 204.468 504.614Z" fill="url(#paint1_linear)"/>
<circle cx="164.5" cy="322.5" r="52.3501" stroke="white" stroke-width="2"/>
<circle cx="164.5" cy="322.5" r="41.6335" stroke="white" stroke-width="2"/>
<circle cx="164.5" cy="322.5" r="63.0668" stroke="white" stroke-width="2"/>
<circle cx="164.5" cy="322.5" r="73.7834" stroke="white" stroke-width="2"/>
<circle cx="164.5" cy="322.5" r="84.5" stroke="white" stroke-width="2"/>
<circle cx="-77.5" cy="610.5" r="116.62" stroke="white" stroke-width="2"/>
<circle cx="-77.5" cy="610.5" r="92.9932" stroke="white" stroke-width="2"/>
<circle cx="-77.5" cy="610.5" r="140.247" stroke="white" stroke-width="2"/>
<circle cx="-77.4999" cy="610.5" r="163.873" stroke="white" stroke-width="2"/>
<circle cx="-77.5" cy="610.5" r="187.5" stroke="white" stroke-width="2"/>
<defs>
<linearGradient id="paint0_linear" x1="166.368" y1="589.12" x2="74.9455" y2="165.084" gradientUnits="userSpaceOnUse">
<stop stop-color="#6DB8BB"/>
<stop offset="1" stop-color="#05647A"/>
</linearGradient>
<linearGradient id="paint1_linear" x1="268.5" y1="454" x2="609.5" y2="-18.5001" gradientUnits="userSpaceOnUse">
<stop stop-color="#5DADB0"/>
<stop offset="1" stop-color="white" stop-opacity="0"/>
</linearGradient>
</defs>
</svg>
