<svg width="305" height="19" viewBox="0 0 305 19" fill="none" xmlns="http://www.w3.org/2000/svg">
<path d="M14.36 -9.53674e-07V14H11.8V2.2H4.54V14H1.98V-9.53674e-07H14.36ZM22.7877 14.14C21.7077 14.14 20.7343 13.9067 19.8677 13.44C19.001 12.9733 18.321 12.3267 17.8277 11.5C17.3477 10.66 17.1077 9.71333 17.1077 8.66C17.1077 7.60667 17.3477 6.66667 17.8277 5.84C18.321 5.01333 19.001 4.36667 19.8677 3.9C20.7343 3.43333 21.7077 3.2 22.7877 3.2C23.881 3.2 24.861 3.43333 25.7277 3.9C26.5943 4.36667 27.2677 5.01333 27.7477 5.84C28.241 6.66667 28.4877 7.60667 28.4877 8.66C28.4877 9.71333 28.241 10.66 27.7477 11.5C27.2677 12.3267 26.5943 12.9733 25.7277 13.44C24.861 13.9067 23.881 14.14 22.7877 14.14ZM22.7877 12C23.7077 12 24.4677 11.6933 25.0677 11.08C25.6677 10.4667 25.9677 9.66 25.9677 8.66C25.9677 7.66 25.6677 6.85333 25.0677 6.24C24.4677 5.62667 23.7077 5.32 22.7877 5.32C21.8677 5.32 21.1077 5.62667 20.5077 6.24C19.921 6.85333 19.6277 7.66 19.6277 8.66C19.6277 9.66 19.921 10.4667 20.5077 11.08C21.1077 11.6933 21.8677 12 22.7877 12ZM35.8173 14.14C34.7107 14.14 33.7173 13.9067 32.8373 13.44C31.9573 12.9733 31.2707 12.3267 30.7773 11.5C30.284 10.66 30.0373 9.71333 30.0373 8.66C30.0373 7.60667 30.284 6.66667 30.7773 5.84C31.2707 5.01333 31.9507 4.36667 32.8173 3.9C33.6973 3.43333 34.6973 3.2 35.8173 3.2C36.8707 3.2 37.7907 3.41333 38.5773 3.84C39.3773 4.26667 39.9773 4.88 40.3773 5.68L38.4573 6.8C38.1507 6.30667 37.764 5.94 37.2973 5.7C36.844 5.44667 36.344 5.32 35.7973 5.32C34.864 5.32 34.0907 5.62667 33.4773 6.24C32.864 6.84 32.5573 7.64667 32.5573 8.66C32.5573 9.67333 32.8573 10.4867 33.4573 11.1C34.0707 11.7 34.8507 12 35.7973 12C36.344 12 36.844 11.88 37.2973 11.64C37.764 11.3867 38.1507 11.0133 38.4573 10.52L40.3773 11.64C39.964 12.44 39.3573 13.06 38.5573 13.5C37.7707 13.9267 36.8573 14.14 35.8173 14.14ZM53.0784 14V6.92L49.4784 12.88H48.3984L44.8584 6.9V14H42.5784V3.32H45.1984L48.9984 10L52.9784 3.32H55.3184L55.3384 14H53.0784ZM63.4517 14.14C62.3717 14.14 61.3984 13.9067 60.5317 13.44C59.6651 12.9733 58.9851 12.3267 58.4917 11.5C58.0117 10.66 57.7717 9.71333 57.7717 8.66C57.7717 7.60667 58.0117 6.66667 58.4917 5.84C58.9851 5.01333 59.6651 4.36667 60.5317 3.9C61.3984 3.43333 62.3717 3.2 63.4517 3.2C64.5451 3.2 65.5251 3.43333 66.3917 3.9C67.2584 4.36667 67.9317 5.01333 68.4117 5.84C68.9051 6.66667 69.1517 7.60667 69.1517 8.66C69.1517 9.71333 68.9051 10.66 68.4117 11.5C67.9317 12.3267 67.2584 12.9733 66.3917 13.44C65.5251 13.9067 64.5451 14.14 63.4517 14.14ZM63.4517 12C64.3717 12 65.1317 11.6933 65.7317 11.08C66.3317 10.4667 66.6317 9.66 66.6317 8.66C66.6317 7.66 66.3317 6.85333 65.7317 6.24C65.1317 5.62667 64.3717 5.32 63.4517 5.32C62.5317 5.32 61.7717 5.62667 61.1717 6.24C60.5851 6.85333 60.2917 7.66 60.2917 8.66C60.2917 9.66 60.5851 10.4667 61.1717 11.08C61.7717 11.6933 62.5317 12 63.4517 12ZM79.6908 5.44H75.9508V14H73.4508V5.44H69.6908V3.32H79.6908V5.44ZM87.4242 3.2C88.4642 3.2 89.3909 3.42667 90.2042 3.88C91.0309 4.33333 91.6776 4.97333 92.1442 5.8C92.6109 6.62667 92.8442 7.58 92.8442 8.66C92.8442 9.74 92.6109 10.7 92.1442 11.54C91.6776 12.3667 91.0309 13.0067 90.2042 13.46C89.3909 13.9133 88.4642 14.14 87.4242 14.14C85.9842 14.14 84.8442 13.66 84.0042 12.7V17.88H81.5042V3.32H83.8842V4.72C84.2976 4.21333 84.8042 3.83333 85.4042 3.58C86.0176 3.32667 86.6909 3.2 87.4242 3.2ZM87.1442 12C88.0642 12 88.8176 11.6933 89.4042 11.08C90.0042 10.4667 90.3042 9.66 90.3042 8.66C90.3042 7.66 90.0042 6.85333 89.4042 6.24C88.8176 5.62667 88.0642 5.32 87.1442 5.32C86.5442 5.32 86.0042 5.46 85.5242 5.74C85.0442 6.00667 84.6642 6.39333 84.3842 6.9C84.1042 7.40667 83.9642 7.99333 83.9642 8.66C83.9642 9.32667 84.1042 9.91333 84.3842 10.42C84.6642 10.9267 85.0442 11.32 85.5242 11.6C86.0042 11.8667 86.5442 12 87.1442 12ZM105.332 8.72C105.332 8.89333 105.319 9.14 105.292 9.46H96.9123C97.059 10.2467 97.439 10.8733 98.0523 11.34C98.679 11.7933 99.4523 12.02 100.372 12.02C101.546 12.02 102.512 11.6333 103.272 10.86L104.612 12.4C104.132 12.9733 103.526 13.4067 102.792 13.7C102.059 13.9933 101.232 14.14 100.312 14.14C99.139 14.14 98.1057 13.9067 97.2123 13.44C96.319 12.9733 95.6257 12.3267 95.1323 11.5C94.6523 10.66 94.4123 9.71333 94.4123 8.66C94.4123 7.62 94.6457 6.68667 95.1123 5.86C95.5923 5.02 96.2523 4.36667 97.0923 3.9C97.9323 3.43333 98.879 3.2 99.9323 3.2C100.972 3.2 101.899 3.43333 102.712 3.9C103.539 4.35333 104.179 5 104.632 5.84C105.099 6.66667 105.332 7.62667 105.332 8.72ZM99.9323 5.2C99.1323 5.2 98.4523 5.44 97.8923 5.92C97.3457 6.38667 97.0123 7.01333 96.8923 7.8H102.952C102.846 7.02667 102.519 6.4 101.972 5.92C101.426 5.44 100.746 5.2 99.9323 5.2ZM116.136 5.44H112.396V14H109.896V5.44H106.136V3.32H116.136V5.44ZM123.31 6.84C124.67 6.84 125.71 7.14667 126.43 7.76C127.163 8.37333 127.53 9.24 127.53 10.36C127.53 11.5333 127.13 12.44 126.33 13.08C125.53 13.72 124.403 14.0333 122.95 14.02L117.95 14V3.32H120.45V6.82L123.31 6.84ZM122.73 12.18C123.463 12.1933 124.023 12.04 124.41 11.72C124.796 11.4 124.99 10.9333 124.99 10.32C124.99 9.72 124.803 9.28 124.43 9C124.056 8.72 123.49 8.57333 122.73 8.56L120.45 8.54V12.16L122.73 12.18ZM145.494 3.32V14H143.014V5.44H137.754V14H135.254V3.32H145.494ZM153.628 14.14C152.548 14.14 151.574 13.9067 150.708 13.44C149.841 12.9733 149.161 12.3267 148.668 11.5C148.188 10.66 147.948 9.71333 147.948 8.66C147.948 7.60667 148.188 6.66667 148.668 5.84C149.161 5.01333 149.841 4.36667 150.708 3.9C151.574 3.43333 152.548 3.2 153.628 3.2C154.721 3.2 155.701 3.43333 156.568 3.9C157.434 4.36667 158.108 5.01333 158.588 5.84C159.081 6.66667 159.328 7.60667 159.328 8.66C159.328 9.71333 159.081 10.66 158.588 11.5C158.108 12.3267 157.434 12.9733 156.568 13.44C155.701 13.9067 154.721 14.14 153.628 14.14ZM153.628 12C154.548 12 155.308 11.6933 155.908 11.08C156.508 10.4667 156.808 9.66 156.808 8.66C156.808 7.66 156.508 6.85333 155.908 6.24C155.308 5.62667 154.548 5.32 153.628 5.32C152.708 5.32 151.948 5.62667 151.348 6.24C150.761 6.85333 150.468 7.66 150.468 8.66C150.468 9.66 150.761 10.4667 151.348 11.08C151.948 11.6933 152.708 12 153.628 12ZM171.36 3.32V14H168.86V5.44H164.86L164.76 7.56C164.693 8.97333 164.56 10.16 164.36 11.12C164.173 12.0667 163.847 12.82 163.38 13.38C162.927 13.9267 162.3 14.2 161.5 14.2C161.127 14.2 160.667 14.1267 160.12 13.98L160.24 11.88C160.427 11.92 160.587 11.94 160.72 11.94C161.227 11.94 161.607 11.74 161.86 11.34C162.113 10.9267 162.273 10.44 162.34 9.88C162.42 9.30667 162.487 8.49333 162.54 7.44L162.72 3.32H171.36ZM174.727 3.32H177.227V7.66H182.607V3.32H185.107V14H182.607V9.78H177.227V14H174.727V3.32ZM198.537 3.32L193.537 14.86C193.071 16.02 192.504 16.8333 191.837 17.3C191.171 17.78 190.364 18.02 189.417 18.02C188.884 18.02 188.357 17.9333 187.837 17.76C187.317 17.5867 186.891 17.3467 186.557 17.04L187.557 15.2C187.797 15.4267 188.077 15.6067 188.397 15.74C188.731 15.8733 189.064 15.94 189.397 15.94C189.837 15.94 190.197 15.8267 190.477 15.6C190.771 15.3733 191.037 14.9933 191.277 14.46L191.457 14.04L186.797 3.32H189.397L192.757 11.22L196.137 3.32H198.537ZM210.034 3.2C211.1 3.2 212.054 3.43333 212.894 3.9C213.734 4.35333 214.394 5 214.874 5.84C215.354 6.66667 215.594 7.60667 215.594 8.66C215.594 9.71333 215.354 10.66 214.874 11.5C214.394 12.3267 213.734 12.9733 212.894 13.44C212.054 13.9067 211.1 14.14 210.034 14.14C209.1 14.14 208.247 13.96 207.474 13.6C206.7 13.2267 206.06 12.7067 205.554 12.04C205.047 11.36 204.72 10.5867 204.574 9.72H202.774V14H200.274V3.32H202.774V7.46H204.614C204.774 6.62 205.107 5.88 205.614 5.24C206.12 4.58667 206.754 4.08667 207.514 3.74C208.274 3.38 209.114 3.2 210.034 3.2ZM210.034 12.02C210.62 12.02 211.147 11.8867 211.614 11.62C212.08 11.34 212.447 10.9467 212.714 10.44C212.98 9.92 213.114 9.32667 213.114 8.66C213.114 7.64667 212.82 6.84 212.234 6.24C211.66 5.62667 210.927 5.32 210.034 5.32C209.14 5.32 208.407 5.62667 207.834 6.24C207.26 6.84 206.974 7.64667 206.974 8.66C206.974 9.67333 207.26 10.4867 207.834 11.1C208.42 11.7133 209.154 12.02 210.034 12.02ZM231.315 8.44C232.635 8.84 233.295 9.69333 233.295 11C233.295 11.96 232.935 12.7 232.215 13.22C231.495 13.74 230.428 14 229.015 14H223.575V3.32H228.795C230.101 3.32 231.121 3.56 231.855 4.04C232.588 4.52 232.955 5.2 232.955 6.08C232.955 6.62667 232.808 7.1 232.515 7.5C232.235 7.9 231.835 8.21333 231.315 8.44ZM225.955 7.78H228.575C229.868 7.78 230.515 7.33333 230.515 6.44C230.515 5.57333 229.868 5.14 228.575 5.14H225.955V7.78ZM228.815 12.18C230.188 12.18 230.875 11.7333 230.875 10.84C230.875 10.3733 230.715 10.0267 230.395 9.8C230.075 9.56 229.575 9.44 228.895 9.44H225.955V12.18H228.815ZM245.957 8.72C245.957 8.89333 245.944 9.14 245.917 9.46H237.537C237.684 10.2467 238.064 10.8733 238.677 11.34C239.304 11.7933 240.077 12.02 240.997 12.02C242.171 12.02 243.137 11.6333 243.897 10.86L245.237 12.4C244.757 12.9733 244.151 13.4067 243.417 13.7C242.684 13.9933 241.857 14.14 240.937 14.14C239.764 14.14 238.731 13.9067 237.837 13.44C236.944 12.9733 236.251 12.3267 235.757 11.5C235.277 10.66 235.037 9.71333 235.037 8.66C235.037 7.62 235.271 6.68667 235.737 5.86C236.217 5.02 236.877 4.36667 237.717 3.9C238.557 3.43333 239.504 3.2 240.557 3.2C241.597 3.2 242.524 3.43333 243.337 3.9C244.164 4.35333 244.804 5 245.257 5.84C245.724 6.66667 245.957 7.62667 245.957 8.72ZM240.557 5.2C239.757 5.2 239.077 5.44 238.517 5.92C237.971 6.38667 237.637 7.01333 237.517 7.8H243.577C243.471 7.02667 243.144 6.4 242.597 5.92C242.051 5.44 241.371 5.2 240.557 5.2ZM254.612 3.2C255.652 3.2 256.578 3.42667 257.392 3.88C258.218 4.33333 258.865 4.97333 259.332 5.8C259.798 6.62667 260.032 7.58 260.032 8.66C260.032 9.74 259.798 10.7 259.332 11.54C258.865 12.3667 258.218 13.0067 257.392 13.46C256.578 13.9133 255.652 14.14 254.612 14.14C253.172 14.14 252.032 13.66 251.192 12.7V17.88H248.692V3.32H251.072V4.72C251.485 4.21333 251.992 3.83333 252.592 3.58C253.205 3.32667 253.878 3.2 254.612 3.2ZM254.332 12C255.252 12 256.005 11.6933 256.592 11.08C257.192 10.4667 257.492 9.66 257.492 8.66C257.492 7.66 257.192 6.85333 256.592 6.24C256.005 5.62667 255.252 5.32 254.332 5.32C253.732 5.32 253.192 5.46 252.712 5.74C252.232 6.00667 251.852 6.39333 251.572 6.9C251.292 7.40667 251.152 7.99333 251.152 8.66C251.152 9.32667 251.292 9.91333 251.572 10.42C251.852 10.9267 252.232 11.32 252.712 11.6C253.192 11.8667 253.732 12 254.332 12ZM267.38 14.14C266.273 14.14 265.28 13.9067 264.4 13.44C263.52 12.9733 262.833 12.3267 262.34 11.5C261.847 10.66 261.6 9.71333 261.6 8.66C261.6 7.60667 261.847 6.66667 262.34 5.84C262.833 5.01333 263.513 4.36667 264.38 3.9C265.26 3.43333 266.26 3.2 267.38 3.2C268.433 3.2 269.353 3.41333 270.14 3.84C270.94 4.26667 271.54 4.88 271.94 5.68L270.02 6.8C269.713 6.30667 269.327 5.94 268.86 5.7C268.407 5.44667 267.907 5.32 267.36 5.32C266.427 5.32 265.653 5.62667 265.04 6.24C264.427 6.84 264.12 7.64667 264.12 8.66C264.12 9.67333 264.42 10.4867 265.02 11.1C265.633 11.7 266.413 12 267.36 12C267.907 12 268.407 11.88 268.86 11.64C269.327 11.3867 269.713 11.0133 270.02 10.52L271.94 11.64C271.527 12.44 270.92 13.06 270.12 13.5C269.333 13.9267 268.42 14.14 267.38 14.14ZM274.141 3.32H276.641V10.36L282.541 3.32H284.821V14H282.321V6.96L276.441 14H274.141V3.32ZM297.944 3.2C299.011 3.2 299.964 3.43333 300.804 3.9C301.644 4.35333 302.304 5 302.784 5.84C303.264 6.66667 303.504 7.60667 303.504 8.66C303.504 9.71333 303.264 10.66 302.784 11.5C302.304 12.3267 301.644 12.9733 300.804 13.44C299.964 13.9067 299.011 14.14 297.944 14.14C297.011 14.14 296.157 13.96 295.384 13.6C294.611 13.2267 293.971 12.7067 293.464 12.04C292.957 11.36 292.631 10.5867 292.484 9.72H290.684V14H288.184V3.32H290.684V7.46H292.524C292.684 6.62 293.017 5.88 293.524 5.24C294.031 4.58667 294.664 4.08667 295.424 3.74C296.184 3.38 297.024 3.2 297.944 3.2ZM297.944 12.02C298.531 12.02 299.057 11.8867 299.524 11.62C299.991 11.34 300.357 10.9467 300.624 10.44C300.891 9.92 301.024 9.32667 301.024 8.66C301.024 7.64667 300.731 6.84 300.144 6.24C299.571 5.62667 298.837 5.32 297.944 5.32C297.051 5.32 296.317 5.62667 295.744 6.24C295.171 6.84 294.884 7.64667 294.884 8.66C294.884 9.67333 295.171 10.4867 295.744 11.1C296.331 11.7133 297.064 12.02 297.944 12.02Z" fill="white"/>
<path d="M0 16H304.284V17H0V16Z" fill="white"/>
</svg>
