<svg width="313" height="587" viewBox="0 0 313 587" fill="none" xmlns="http://www.w3.org/2000/svg">
<path d="M-6.5 527.5C-38.0619 496.818 -3.12435 511.841 -40.9156 459.016C-47.0065 372.36 -59.0222 153.544 -51.7131 137.904C-44.404 122.265 36.8817 85.0788 76.6109 68.4409C85.1935 68.4409 132.259 38.0767 254.354 109.204C301.697 143.312 337.412 214.855 292.145 266.432C280.356 279.866 145.701 283.563 210.5 420.5C248.291 500.362 259.089 547.871 210.5 577.728C173.955 600.186 147.869 577.728 110 541.541C-16.6626 420.5 25.0619 558.182 -6.5 527.5Z" fill="#E0E2D5"/>
<path d="M-6.5 527.5C-38.0619 496.818 -3.12435 511.841 -40.9156 459.016C-47.0065 372.36 -59.0222 153.544 -51.7131 137.904C-44.404 122.265 36.8817 85.0788 76.6109 68.4409C85.1935 68.4409 132.259 38.0767 254.354 109.204C301.697 143.312 337.412 214.855 292.145 266.432C280.356 279.866 145.701 283.563 210.5 420.5C248.291 500.362 259.089 547.871 210.5 577.728C173.955 600.186 147.869 577.728 110 541.541C-16.6626 420.5 25.0619 558.182 -6.5 527.5Z" fill="url(#paint0_linear)"/>
<path d="M-8.5 370.5C84.3487 377.457 60 308.5 116 252C140 233.5 173.5 266 197 219C212.5 188 160 163 152 93C143.058 14.7556 49.9256 -6.72957 1.9256 2.00001C-76.3535 16.2364 -11.1927 133.5 -73 133.5C-88.5 133.5 -140.5 105.118 -166.5 126C-245.5 189.449 -138 303.5 -138 303.5C-138 303.5 -87.6897 364.566 -8.5 370.5Z" fill="#6DB8BB"/>
<path d="M-8.5 370.5C84.3487 377.457 60 308.5 116 252C140 233.5 173.5 266 197 219C212.5 188 160 163 152 93C143.058 14.7556 49.9256 -6.72957 1.9256 2.00001C-76.3535 16.2364 -11.1927 133.5 -73 133.5C-88.5 133.5 -140.5 105.118 -166.5 126C-245.5 189.449 -138 303.5 -138 303.5C-138 303.5 -87.6897 364.566 -8.5 370.5Z" fill="url(#paint1_linear)"/>
<circle cx="-15" cy="366" r="73" stroke="#E0E5DA" stroke-width="2"/>
<circle cx="-15.5" cy="365.5" r="58.5" stroke="#E0E5DA" stroke-width="2"/>
<circle cx="-15" cy="366" r="88" stroke="#E0E5DA" stroke-width="2"/>
<circle cx="-15" cy="366" r="103" stroke="#E0E5DA" stroke-width="2"/>
<circle cx="-15" cy="366" r="118" stroke="#E0E5DA" stroke-width="2"/>
<defs>
<linearGradient id="paint0_linear" x1="-27" y1="476" x2="389" y2="363.5" gradientUnits="userSpaceOnUse">
<stop stop-color="#5DADB0"/>
<stop offset="1" stop-color="white" stop-opacity="0"/>
</linearGradient>
<linearGradient id="paint1_linear" x1="148" y1="42.5" x2="-93" y2="214" gradientUnits="userSpaceOnUse">
<stop stop-color="#6DB8BB"/>
<stop offset="0.919554" stop-color="#05647A"/>
</linearGradient>
</defs>
</svg>
